<svg xmlns="http://www.w3.org/2000/svg" width="100" height="100" viewBox="0 0 100 100">
  <g id="Anti_cheat_B" data-name="Anti cheat B" transform="translate(-910 -910)">
    <circle id="Ellipse_286" data-name="Ellipse 286" cx="50" cy="50" r="50" transform="translate(910 910)" fill="#1aa7de"/>
    <g id="Group_785" data-name="Group 785" transform="translate(538.49 459.68)">
      <path id="Path_705" data-name="Path 705" d="M397.12,500.99a24.412,24.412,0,0,1,17.26-24,24.373,24.373,0,0,1,27.98,10.66l1.97-.58a26.4,26.4,0,0,0-49.2,14.5Z" fill="#fafafa"/>
      <path id="Path_706" data-name="Path 706" d="M445.9,499.56a24.419,24.419,0,0,1-17.26,24.09,24.44,24.44,0,0,1-28.03-10.74l-1.96.58a26.486,26.486,0,0,0,22.87,13.23,26.414,26.414,0,0,0,26.35-27.75Z" fill="#fafafa"/>
    </g>
    <g id="Group_786" data-name="Group 786" transform="translate(538.49 459.68)">
      <path id="Path_707" data-name="Path 707" d="M395.21,508.83a3.264,3.264,0,0,1-2.68,3.42c-2.49.67-4.18-.8-4.8-3.08-.59-2.19.1-4.49,2.63-5.17a3.113,3.113,0,0,1,3.97,1.64l-1.5.41a1.79,1.79,0,0,0-2.2-.84c-1.54.42-1.78,1.98-1.37,3.49.39,1.43,1.34,2.78,2.99,2.34a1.819,1.819,0,0,0,1.43-1.8Z" fill="#fafafa"/>
      <path id="Path_708" data-name="Path 708" d="M396.26,502.53l1.5-.41.87,3.2,3.55-.96-.87-3.2,1.5-.41,2.17,8.01-1.5.41-.97-3.56-3.55.96.96,3.56-1.5.41Z" fill="#fafafa"/>
      <path id="Path_709" data-name="Path 709" d="M412.54,502.9l-3.88,1.05.63,2.31,4.28-1.16.15,1.29-5.55,1.5L406,499.88l5.52-1.5.34,1.25-4.06,1.1.53,1.97,3.88-1.05Z" fill="#fafafa"/>
      <path id="Path_710" data-name="Path 710" d="M417.45,503.2l-.15,2.23-1.48.4.6-8.76,1.88-.51,5.05,7.23-1.58.43-1.29-1.84Zm2.34-1.97c-1.13-1.66-1.81-2.65-2.18-3.28h-.01c.01.8-.07,2.21-.15,3.91Z" fill="#fafafa"/>
      <path id="Path_711" data-name="Path 711" d="M424.5,496.22l-2.49.67-.34-1.25,6.47-1.75.34,1.25-2.48.67,1.83,6.76-1.51.41Z" fill="#fafafa"/>
      <path id="Path_712" data-name="Path 712" d="M431.91,492.87l2.17,8.01-1.5.41-2.17-8.01Z" fill="#fafafa"/>
      <path id="Path_713" data-name="Path 713" d="M437.25,500.02l-2.17-8.01,1.89-.51c1.54,1.54,4.56,4.47,5.19,5.24h.02c-.33-.88-.69-2.23-1.05-3.54l-.71-2.63,1.38-.37,2.17,8.01-1.79.49c-1.37-1.37-4.67-4.68-5.35-5.48l-.02.01c.27.76.7,2.3,1.09,3.74l.73,2.7Z" fill="#fafafa"/>
      <path id="Path_714" data-name="Path 714" d="M453.91,495.51l-1.11.3a4.357,4.357,0,0,1-.36-.86,2.812,2.812,0,0,1-2.11,1.66c-2.32.63-4.07-.78-4.68-3.06-.65-2.4.23-4.58,2.72-5.26,1.99-.54,3.49.24,4.07,1.58l-1.5.41a1.852,1.852,0,0,0-2.27-.78c-1.72.46-1.9,2.03-1.48,3.57.4,1.47,1.39,2.73,3.05,2.28a1.824,1.824,0,0,0,1.37-2.54l-.02-.08-1.93.52-.34-1.24,3.4-.92Z" fill="#fafafa"/>
    </g>
  </g>
</svg>
