<svg xmlns="http://www.w3.org/2000/svg" width="100" height="100" viewBox="0 0 100 100">
  <g id="LMS_W" data-name="LMS W" transform="translate(-681.34 -450.32)">
    <circle id="Ellipse_279" data-name="Ellipse 279" cx="50" cy="50" r="50" transform="translate(681.34 450.32)" fill="#fff"/>
    <g id="Group_763" data-name="Group 763">
      <g id="Group_753" data-name="Group 753">
        <path id="Path_675" data-name="Path 675" d="M705.44,514.46V476.82h20.44a6.459,6.459,0,0,1,6.45,6.45v26.01a3.557,3.557,0,0,1-3.3,3.54Zm2-35.64v33.49l21.45-1.49a1.552,1.552,0,0,0,1.44-1.55V483.26a4.453,4.453,0,0,0-4.45-4.45H707.44Z" fill="#1aa7de"/>
      </g>
      <g id="Group_754" data-name="Group 754">
        <path id="Path_676" data-name="Path 676" d="M757.23,514.46l-23.59-1.64a3.557,3.557,0,0,1-3.3-3.54V483.27a6.459,6.459,0,0,1,6.45-6.45h20.44Zm-20.44-35.64a4.453,4.453,0,0,0-4.45,4.45v26.01a1.559,1.559,0,0,0,1.44,1.55l21.45,1.49V478.83H736.79Z" fill="#1aa7de"/>
      </g>
      <g id="Group_755" data-name="Group 755">
        <path id="Path_677" data-name="Path 677" d="M726.24,487.53h-14.7a1,1,0,0,1,0-2h14.7a1,1,0,0,1,0,2Z" fill="#1aa7de"/>
      </g>
      <g id="Group_756" data-name="Group 756">
        <path id="Path_678" data-name="Path 678" d="M726.24,493.11h-14.7a1,1,0,0,1,0-2h14.7a1,1,0,0,1,0,2Z" fill="#1aa7de"/>
      </g>
      <g id="Group_757" data-name="Group 757">
        <path id="Path_679" data-name="Path 679" d="M726.24,499.39h-14.7a1,1,0,0,1,0-2h14.7a1,1,0,0,1,0,2Z" fill="#1aa7de"/>
      </g>
      <g id="Group_758" data-name="Group 758">
        <path id="Path_680" data-name="Path 680" d="M726.24,505.67h-14.7a1,1,0,0,1,0-2h14.7a1,1,0,0,1,0,2Z" fill="#1aa7de"/>
      </g>
      <g id="Group_759" data-name="Group 759">
        <path id="Path_681" data-name="Path 681" d="M751.14,487.53h-14.7a1,1,0,0,1,0-2h14.7a1,1,0,0,1,0,2Z" fill="#1aa7de"/>
      </g>
      <g id="Group_760" data-name="Group 760">
        <path id="Path_682" data-name="Path 682" d="M751.14,493.11h-14.7a1,1,0,0,1,0-2h14.7a1,1,0,0,1,0,2Z" fill="#1aa7de"/>
      </g>
      <g id="Group_761" data-name="Group 761">
        <path id="Path_683" data-name="Path 683" d="M751.14,499.39h-14.7a1,1,0,0,1,0-2h14.7a1,1,0,0,1,0,2Z" fill="#1aa7de"/>
      </g>
      <g id="Group_762" data-name="Group 762">
        <path id="Path_684" data-name="Path 684" d="M751.14,505.67h-14.7a1,1,0,0,1,0-2h14.7a1,1,0,0,1,0,2Z" fill="#1aa7de"/>
      </g>
    </g>
    <g id="Group_764" data-name="Group 764">
      <path id="Path_685" data-name="Path 685" d="M725.26,528.82h-5.47a4.51,4.51,0,0,1,0-9.02h5.47a1.92,1.92,0,0,1,1.92,1.92v5.17A1.923,1.923,0,0,1,725.26,528.82Zm-5.47-7.02a2.51,2.51,0,0,0,0,5.02h5.39V521.8Z" fill="#1aa7de"/>
    </g>
    <g id="Group_765" data-name="Group 765">
      <path id="Path_686" data-name="Path 686" d="M742.01,525.47H726.19a1,1,0,0,1,0-2h15.82a1,1,0,0,1,0,2Z" fill="#1aa7de"/>
    </g>
    <g id="Group_766" data-name="Group 766">
      <path id="Path_687" data-name="Path 687" d="M742.01,525.47a1,1,0,0,1-1-1V512a1,1,0,0,1,2,0v12.47A1,1,0,0,1,742.01,525.47Z" fill="#1aa7de"/>
    </g>
    <g id="Group_767" data-name="Group 767">
      <path id="Path_688" data-name="Path 688" d="M722.07,524.73v-.57a.48.48,0,0,1,.48-.48H724a.48.48,0,0,1,.48.48v.57a.48.48,0,0,1-.48.48h-1.45A.474.474,0,0,1,722.07,524.73Z" fill="#1aa7de"/>
    </g>
    <g id="Group_768" data-name="Group 768">
      <rect id="Rectangle_839" data-name="Rectangle 839" width="1.35" height="1" transform="translate(724.48 523.95)" fill="#1aa7de"/>
    </g>
    <g id="Group_769" data-name="Group 769">
      <rect id="Rectangle_840" data-name="Rectangle 840" width="3.59" height="1" transform="translate(718.61 523.95)" fill="#1aa7de"/>
    </g>
  </g>
</svg>
