<svg xmlns="http://www.w3.org/2000/svg" width="100" height="100" viewBox="0 0 100 100">
  <g id="Online_classes_B" data-name="Online classes B" transform="translate(-521.49 -450.32)">
    <circle id="Ellipse_287" data-name="Ellipse 287" cx="50" cy="50" r="50" transform="translate(521.49 450.32)" fill="#1aa7de"/>
    <g id="Group_788" data-name="Group 788">
      <path id="XMLID_13_" d="M549.38,510.14H533.1a.548.548,0,0,1-.55-.55h0a8.134,8.134,0,0,1,8.14-8.14h1.09a8.134,8.134,0,0,1,8.14,8.14h0A.54.54,0,0,1,549.38,510.14Z" fill="none" stroke="#fafafa" stroke-miterlimit="10" stroke-width="2"/>
      <circle id="Ellipse_288" data-name="Ellipse 288" cx="4.19" cy="4.19" r="4.19" transform="translate(537.05 488.69)" fill="none" stroke="#fafafa" stroke-miterlimit="10" stroke-width="2"/>
      <path id="XMLID_12_" d="M609.88,510.14H593.6a.548.548,0,0,1-.55-.55h0a8.134,8.134,0,0,1,8.14-8.14h1.09a8.134,8.134,0,0,1,8.14,8.14h0A.54.54,0,0,1,609.88,510.14Z" fill="none" stroke="#fafafa" stroke-miterlimit="10" stroke-width="2"/>
      <circle id="Ellipse_289" data-name="Ellipse 289" cx="4.19" cy="4.19" r="4.19" transform="translate(597.55 488.69)" fill="none" stroke="#fafafa" stroke-miterlimit="10" stroke-width="2"/>
      <path id="XMLID_11_" d="M585.67,517.43H557.3a.956.956,0,0,1-.95-.95h0a14.182,14.182,0,0,1,14.18-14.18h1.9a14.182,14.182,0,0,1,14.18,14.18h0A.929.929,0,0,1,585.67,517.43Z" fill="none" stroke="#fafafa" stroke-miterlimit="10" stroke-width="2"/>
      <circle id="Ellipse_290" data-name="Ellipse 290" cx="7.3" cy="7.3" r="7.3" transform="translate(564.19 483.21)" fill="none" stroke="#fafafa" stroke-miterlimit="10" stroke-width="2"/>
    </g>
  </g>
</svg>
