<svg xmlns="http://www.w3.org/2000/svg" width="100" height="100" viewBox="0 0 100 100">
  <g id="Proctoring_B" data-name="Proctoring B" transform="translate(-71.56 -450.32)">
    <circle id="Ellipse_280" data-name="Ellipse 280" cx="50" cy="50" r="50" transform="translate(71.56 450.32)" fill="#1aa7de"/>
    <g id="Group_773" data-name="Group 773">
      <path id="Path_689" data-name="Path 689" d="M122.13,481.29c-.03,0-.07.02-.1.02a.055.055,0,0,1-.05.02,2.415,2.415,0,0,0,.25-.03,1.728,1.728,0,0,0,.31-.07C122.41,481.24,122.28,481.27,122.13,481.29Zm-4.49-.58c-.61,1.37-1.37,3.08-2.29,5.11a.261.261,0,0,1,.03.08c.96-2.08,1.73-3.79,2.36-5.18C117.71,480.73,117.67,480.71,117.64,480.71Zm0,0c-.61,1.37-1.37,3.08-2.29,5.11a.261.261,0,0,1,.03.08c.96-2.08,1.73-3.79,2.36-5.18C117.71,480.73,117.67,480.71,117.64,480.71Zm4.49.58c-.03,0-.07.02-.1.02a.055.055,0,0,1-.05.02,2.415,2.415,0,0,0,.25-.03,1.728,1.728,0,0,0,.31-.07C122.41,481.24,122.28,481.27,122.13,481.29Zm11.97,19.44a41.742,41.742,0,0,0-4.67-.79c-3.2-.53-4.4-3.38-2.77-6.2a15.166,15.166,0,0,0,1.19-3.89c.16-.61-.03-1.45.31-1.88,1.43-1.86,1.32-3.93,1.06-6.04-.45-3.38-2.09-4.87-5.46-5.06-2.47-.13-4.93-.31-7.59-.48-.45.92-1.06,2.08-1.58,3.28-1.22,2.84-1.78,5.62.48,8.31.3.33.21.97.36,1.47a24.835,24.835,0,0,0,1.42,4.6,3.935,3.935,0,0,1-2.59,5.84c-1.11.21-2.23.3-3.33.43a6.887,6.887,0,0,0-5.36,3.27,5.439,5.439,0,0,0-.36,1.58c.18.07.36.13.54.21.36-.49.73-1.01,1.11-1.48,1.62-2.11,6.88-3.5,8.76-2.21,3.89,2.66,7.75,2.47,11.68.13.45-.26.96-.66,1.4-.63,3.18.3,6.6.17,8.41,3.66.1.23.48.3.79.48C138.11,503.42,136.51,501.41,134.1,500.73Zm-7.62-9.83a4.535,4.535,0,0,1-2.74,3.74,4.768,4.768,0,0,1-1.72.46,4.1,4.1,0,0,1-.49.02c-.15,0-.31-.02-.46-.02a5.115,5.115,0,0,1-.78-.15,2.162,2.162,0,0,1-.41-.13,4.776,4.776,0,0,1-3.12-4.02c-.28-2.95-.31-5.89,1.7-8.18,1.45,0,2.79.07,4.12-.02a5.216,5.216,0,0,1,1.67.1,1.534,1.534,0,0,1,.51.17c1.02.38,1.57,1.3,1.73,2.92A25.667,25.667,0,0,1,126.48,490.9Zm-11.18-4.98c-1.24-3.4.46-5.72,1.57-7.87h.08c2.09,0,3.79-.02,5.49,0,.25,0,.49,0,.73.02.2.02.38.02.56.05h.02a6.155,6.155,0,0,1,1.19.2h.02c2.62.68,3.45,2.57,2.99,6.28v.02c-.1-.03-.3-.03-.31-.08-.64-1.95-1.68-3.08-3.35-3.35a4.58,4.58,0,0,0-1.12-.03.715.715,0,0,1-.21.02c-.12.02-.25.03-.4.05-.13.02-.26.05-.41.07-.03,0-.07.02-.1.02a.055.055,0,0,1-.05.02c-.07,0-.13.02-.2.02a3.977,3.977,0,0,1-.69,0c-1.04-.07-2.18-.43-3.35-.61-.03,0-.07-.02-.1-.02-.61,1.37-1.37,3.08-2.29,5.11C115.33,485.86,115.32,485.89,115.3,485.92Zm10.6,15.14a2.938,2.938,0,0,1-.58.36,7.7,7.7,0,0,1-1.47.64,6.1,6.1,0,0,1-.61.17.693.693,0,0,1-.2.03,2.255,2.255,0,0,1-.51.08,7.477,7.477,0,0,1-1.7.05,7.64,7.64,0,0,1-.96-.13,7.252,7.252,0,0,1-.91-.26,1.18,1.18,0,0,1-.33-.12c-.1-.03-.21-.08-.31-.12a7.367,7.367,0,0,1-1.6-1.05c.78-1.6,1.5-3.13,2.21-4.59h5.41c.68,1.45,1.37,2.94,2.11,4.52A2.765,2.765,0,0,1,125.9,501.06Zm-8.26-20.35c-.61,1.37-1.37,3.08-2.29,5.11a.261.261,0,0,1,.03.08c.96-2.08,1.73-3.79,2.36-5.18C117.71,480.73,117.67,480.71,117.64,480.71Zm4.49.58c-.03,0-.07.02-.1.02a.055.055,0,0,1-.05.02,2.415,2.415,0,0,0,.25-.03,1.728,1.728,0,0,0,.31-.07C122.41,481.24,122.28,481.27,122.13,481.29Z" fill="#fafafa"/>
      <path id="Path_690" data-name="Path 690" d="M119.88,494.83a4.69,4.69,0,0,1-3.17-4.02c-.3-2.95-.33-5.89,1.68-8.18h.07c-2.01,2.29-1.98,5.23-1.7,8.18A4.792,4.792,0,0,0,119.88,494.83Z" fill="#fafafa"/>
      <path id="Path_691" data-name="Path 691" d="M116.73,500.72a7.017,7.017,0,0,0,1.6,1.05,7.325,7.325,0,0,1-1.63-1.05c.76-1.6,1.5-3.13,2.19-4.59h.05C118.23,497.58,117.51,499.12,116.73,500.72Z" fill="#fafafa"/>
      <path id="Path_692" data-name="Path 692" d="M117.64,480.71c.03,0,.07.02.1.02-.63,1.39-1.4,3.12-2.36,5.2a.381.381,0,0,1-.03-.1Q116.73,482.77,117.64,480.71Z" fill="#fafafa"/>
      <path id="Path_693" data-name="Path 693" d="M122.13,481.29c.28-.05.56-.1.81-.12-.21.03-.46.07-.71.12a2.3,2.3,0,0,1-.45.05C121.9,481.34,122.01,481.3,122.13,481.29Z" fill="#fafafa"/>
      <path id="Path_694" data-name="Path 694" d="M128.03,484.62a.18.18,0,0,0-.1-.02c.46-3.71-.36-5.61-2.99-6.28C127.64,478.95,128.49,480.84,128.03,484.62Z" fill="#fafafa"/>
      <g id="Group_771" data-name="Group 771">
        <path id="Path_695" data-name="Path 695" d="M137.3,524.25H105.81a2.27,2.27,0,0,1-2.22-1.82l-2.64-13.24a2.268,2.268,0,0,1,.47-1.88,2.244,2.244,0,0,1,1.75-.83h36.77a2.244,2.244,0,0,1,1.75.83,2.277,2.277,0,0,1,.47,1.88l-2.64,13.24A2.26,2.26,0,0,1,137.3,524.25Zm-34.13-16.54a1.04,1.04,0,0,0-.8.38.989.989,0,0,0-.21.86l2.64,13.24a1.037,1.037,0,0,0,1.01.83H137.3a1.037,1.037,0,0,0,1.01-.83l2.64-13.24a1.064,1.064,0,0,0-.21-.86,1.04,1.04,0,0,0-.8-.38H103.17Z" fill="#fafafa"/>
      </g>
      <g id="Group_772" data-name="Group 772">
        <rect id="Rectangle_841" data-name="Rectangle 841" width="58.32" height="1.24" transform="translate(92.4 523.02)" fill="#fafafa"/>
      </g>
    </g>
  </g>
</svg>
