<svg xmlns="http://www.w3.org/2000/svg" width="100" height="100" viewBox="0 0 100 100">
  <g id="Security_W" data-name="Security W" transform="translate(-821.44 -450.32)">
    <circle id="Ellipse_291" data-name="Ellipse 291" cx="50" cy="50" r="50" transform="translate(821.44 450.32)" fill="#fff"/>
    <g id="Group_790" data-name="Group 790">
      <path id="Path_715" data-name="Path 715" d="M889.5,523.61H853.38a3.282,3.282,0,0,1-3.28-3.28V495.7a3.282,3.282,0,0,1,3.28-3.28H889.5a3.282,3.282,0,0,1,3.28,3.28v24.63A3.269,3.269,0,0,1,889.5,523.61Z" fill="none" stroke="#1aa7de" stroke-miterlimit="10" stroke-width="2"/>
      <path id="Path_716" data-name="Path 716" d="M861.59,492c0-7.02,4.42-12.73,9.85-12.73m0,0c5.43,0,9.85,5.71,9.85,12.73m4.93,0c0-9.75-6.62-17.65-14.78-17.65h0c-8.16,0-14.78,7.9-14.78,17.65" fill="none" stroke="#1aa7de" stroke-miterlimit="10" stroke-width="2"/>
      <path id="Path_717" data-name="Path 717" d="M871.48,520.07h0a3.017,3.017,0,0,1-3.02-3.02v-6.03a3.017,3.017,0,0,1,3.02-3.02h0a3.017,3.017,0,0,1,3.02,3.02v6.03A3.017,3.017,0,0,1,871.48,520.07Z" fill="none" stroke="#1aa7de" stroke-miterlimit="10" stroke-width="2"/>
    </g>
  </g>
</svg>
