<svg xmlns="http://www.w3.org/2000/svg" width="107.698" height="101.418" viewBox="0 0 107.698 101.418">
  <g id="Group_1079" data-name="Group 1079" transform="translate(-174.097 -511.852)">
    <g id="Group_1075" data-name="Group 1075">
      <path id="Path_1094" data-name="Path 1094" d="M198.29,581a44.912,44.912,0,0,1-5.05-.29,21.946,21.946,0,0,1-18.98-18.99c-1.37-11.99,6.02-22.33,17.58-24.59,1.75-.34,2.07-.65,2.47-2.39,2.98-12.84,14.18-22.02,27.86-22.84,12.38-.75,24.63,7.36,29.13,19.27.29.76.47.93,1.22,1.1a18.007,18.007,0,0,1,13.71,20.03,14.118,14.118,0,0,1,11.46,4.39c4.15,4.46,5.18,9.72,2.97,15.22a13.67,13.67,0,0,1-12.97,9c-4.6.12-7.9.1-11.72.07-1.75-.01-3.61-.02-5.73-.02v-3.05c2.13,0,3.99.01,5.75.02,3.79.02,7.07.05,11.62-.07a10.543,10.543,0,0,0,10.23-7.09c1.76-4.39.96-8.43-2.38-12.01-2.38-2.56-5.49-3.67-9.54-3.4a2.66,2.66,0,0,1-2.32-.7,2.725,2.725,0,0,1-.46-2.34,14.9,14.9,0,0,0-11.29-17.08,4.258,4.258,0,0,1-3.39-2.99c-4.04-10.69-15.02-17.97-26.1-17.3-12.32.74-22.4,8.97-25.07,20.49-.67,2.89-1.94,4.12-4.85,4.69-9.95,1.95-16.32,10.89-15.14,21.25a19.1,19.1,0,0,0,16.29,16.31,44.883,44.883,0,0,0,6.75.25c1.24-.03,2.64-.06,4.51-.02l-.07,3.04c-1.81-.04-3.17-.01-4.37.02C199.68,580.99,199,581,198.29,581Z" fill="#1aa7de"/>
    </g>
    <g id="Group_1076" data-name="Group 1076">
      <rect id="Rectangle_853" data-name="Rectangle 853" width="10.58" height="3.05" transform="translate(222.23 577.91)" fill="#1aa7de"/>
    </g>
    <g id="Group_1077" data-name="Group 1077">
      <path id="Path_1095" data-name="Path 1095" d="M213.51,613.27h0a2.7,2.7,0,0,1-1.89-.91c-4.09-4.13-8.28-8.32-12.32-12.36l-4.97-4.97a4.6,4.6,0,0,1-.45-.56c-.06-.09-.14-.19-.23-.31l-1.86-2.44h7.73c.66,0,1.32.02,1.98.03l1.83.03c-.03-3.41-.04-6.87-.04-10.22v-3.62c0-.94.01-1.87.01-2.81.01-2.41.02-4.9-.01-7.34a2.423,2.423,0,0,1,2.7-2.72c5.1.04,10.18.04,15.09,0a2.69,2.69,0,0,1,2,.69,2.743,2.743,0,0,1,.69,2.03c-.02,2.47-.01,4.98,0,7.41l.01,2.74v3.76c0,3.32,0,6.74-.05,10.12h9.6l.09,1.42a2.4,2.4,0,0,1-.97,2.09l-.07.06q-3.435,3.435-6.88,6.89-4.965,4.98-9.94,9.96A3.1,3.1,0,0,1,213.51,613.27Zm-15.16-18.52,3.09,3.09c3.96,3.96,8.05,8.04,12.06,12.09q4.905-4.92,9.81-9.83l5.26-5.26H223.5a2.877,2.877,0,0,1-2.15-.74,2.736,2.736,0,0,1-.71-2.03c.05-3.46.05-6.99.05-10.4v-3.76l-.01-2.73c-.01-2.32-.02-4.72,0-7.09-4.68.04-9.51.04-14.37,0,.02,2.35.01,4.72,0,7.02,0,.93-.01,1.87-.01,2.8v3.62c0,3.46.01,7.03.05,10.54a2.658,2.658,0,0,1-.71,2.02,2.542,2.542,0,0,1-1.89.71h-.01c-.77,0-1.55-.02-2.32-.03l-1.94-.03C199.12,594.75,198.74,594.75,198.35,594.75Zm25.35-2.49Zm-20.38,0Z" fill="#1aa7de"/>
    </g>
    <g id="Group_1078" data-name="Group 1078">
      <path id="Path_1096" data-name="Path 1096" d="M234.02,588.42a2.78,2.78,0,0,1-2.04-.71,2.848,2.848,0,0,1-.7-2.16c.03-2.4.01-4.85,0-7.22-.01-.93-.01-1.86-.02-2.79l.01-3.73c.01-3.32.01-6.74.05-10.12-2.3.03-4.62.02-6.87,0-.11,0-.18.01-.25.01a2.974,2.974,0,0,1-1.9-.37l-.83-.52.13-.97a2.564,2.564,0,0,1,.99-1.65c.03-.03.07-.05.1-.08q8.46-8.49,16.95-16.95c.04-.04.08-.09.12-.13a2.351,2.351,0,0,1,1.72-.92,2.489,2.489,0,0,1,1.8.84c4.29,4.34,8.68,8.73,12.93,12.98l4.57,4.57a5.068,5.068,0,0,1,.37.43c.06.08.13.17.23.3l1.99,2.48h-3.18c-.87,0-1.71,0-2.54.01-2.04.01-3.97.02-5.93-.04.07,3.36.07,6.76.07,10.05v3.81c0,.95-.01,1.89-.02,2.82-.02,2.36-.04,4.81-.01,7.2a2.86,2.86,0,0,1-.7,2.16,2.894,2.894,0,0,1-2.12.71c-4.94-.06-9.93-.06-14.82,0A.373.373,0,0,0,234.02,588.42Zm7.47-3.09c2.4,0,4.81.01,7.21.04-.03-2.35-.01-4.74.01-7.05.01-.93.02-1.87.02-2.8v-3.81c0-3.3,0-6.71-.07-10.06a3.061,3.061,0,0,1,.75-2.31,3.1,3.1,0,0,1,2.38-.72c1.59.05,3.18.05,4.84.04l-2.59-2.59c-4.1-4.1-8.34-8.33-12.5-12.54q-7.56,7.56-15.11,15.12c1.76.01,3.52.01,5.26-.02a2.652,2.652,0,0,1,2,.66,2.571,2.571,0,0,1,.67,1.93c-.04,3.53-.05,7.11-.05,10.58l-.01,3.72c0,.92.01,1.85.02,2.77.02,2.31.04,4.71.01,7.07Q237.885,585.33,241.49,585.33Zm10.23-24.09Z" fill="#1aa7de"/>
    </g>
  </g>
</svg>
